<?xml version="1.0" standalone="no"?>
<!DOCTYPE svg PUBLIC "-//W3C//DTD SVG 20010904//EN"
 "http://www.w3.org/TR/2001/REC-SVG-20010904/DTD/svg10.dtd">
<svg version="1.0" xmlns="http://www.w3.org/2000/svg"
 width="1024.000000pt" height="1024.000000pt" viewBox="0 0 1024.000000 1024.000000"
 preserveAspectRatio="xMidYMid meet">

<g transform="translate(0.000000,1024.000000) scale(0.100000,-0.100000)"
fill="#000000" stroke="none">
<path d="M2605 7859 c-367 -55 -647 -192 -891 -434 -127 -126 -196 -225 -297
-424 -139 -277 -165 -443 -147 -941 l5 -125 -38 -79 c-45 -96 -153 -279 -255
-436 -133 -205 -147 -254 -87 -314 32 -32 137 -76 181 -76 29 0 95 -41 106
-66 9 -18 8 -45 -1 -107 -20 -132 -18 -151 16 -186 16 -15 36 -32 45 -37 17
-9 17 -12 -3 -49 -27 -53 -20 -92 30 -169 59 -90 64 -111 52 -201 -25 -174
-11 -249 56 -304 78 -65 200 -74 526 -41 204 20 238 19 298 -11 63 -31 76 -74
120 -386 21 -153 42 -290 45 -306 11 -52 24 -51 296 8 243 52 1196 266 1268
285 19 4 61 14 93 20 38 8 60 18 67 31 13 23 -1 116 -65 439 -49 248 -65 366
-65 482 0 225 54 385 229 682 265 446 352 718 352 1096 1 488 -164 893 -486
1198 -248 235 -613 402 -988 452 -93 12 -377 11 -462 -1z m490 -14 c413 -62
794 -257 1038 -530 131 -146 263 -377 320 -561 51 -161 70 -286 75 -491 3
-146 0 -215 -12 -295 -45 -281 -130 -502 -316 -813 -178 -300 -238 -462 -247
-666 -7 -158 4 -248 73 -602 52 -271 64 -370 45 -382 -6 -3 -81 -21 -168 -41
-87 -19 -214 -48 -283 -64 -69 -16 -287 -66 -485 -109 -777 -173 -727 -163
-746 -144 -11 11 -28 111 -64 378 -51 377 -71 393 -436 354 -265 -28 -383 -24
-464 15 -98 49 -114 97 -96 287 14 143 14 142 -59 258 -46 74 -48 91 -20 144
l21 39 -47 41 -46 41 6 70 c3 39 9 98 12 132 l6 61 -38 31 c-24 20 -58 35 -93
43 -81 16 -148 47 -177 82 -22 26 -25 37 -20 70 8 49 21 74 104 201 95 144
214 346 264 444 l43 85 -5 136 c-9 272 -4 462 14 556 39 201 126 403 262 607
150 226 416 434 683 535 86 32 247 73 351 88 121 18 384 18 505 0z"/>
<path d="M2835 7378 c-131 -48 -211 -185 -185 -314 6 -28 24 -72 40 -97 29
-46 101 -107 127 -107 10 0 13 -33 13 -162 l-1 -163 -119 -123 c-91 -94 -122
-133 -130 -163 -12 -45 -12 -393 1 -424 4 -11 8 85 8 213 l1 233 125 130 124
129 3 165 3 164 -39 18 c-91 41 -150 136 -148 239 1 75 21 127 70 177 107 111
265 115 372 8 85 -85 101 -205 43 -313 -27 -49 -102 -117 -130 -118 -10 0 -13
-43 -13 -179 0 -99 -4 -190 -9 -203 -5 -13 -64 -80 -130 -150 l-121 -126 0
-242 c0 -333 2 -330 -226 -330 l-137 0 -119 123 c-65 67 -126 136 -136 152
-13 24 -18 62 -20 190 l-4 160 -52 32 c-96 58 -140 156 -119 258 20 95 93 171
188 196 104 28 233 -34 284 -136 58 -116 8 -264 -109 -325 l-35 -18 5 -151 5
-151 90 -90 90 -90 75 2 75 1 -79 6 -78 6 -84 90 -83 90 -1 140 0 140 50 32
c92 61 135 175 105 280 -22 75 -98 152 -174 178 -209 69 -410 -152 -317 -350
23 -52 73 -103 126 -130 l30 -16 0 -142 c0 -78 5 -159 10 -179 8 -27 45 -73
136 -168 147 -151 153 -154 314 -148 118 4 146 15 180 71 18 29 20 52 20 273
l0 240 120 127 c66 70 125 139 130 153 6 14 10 103 10 197 l0 172 36 20 c79
43 144 150 144 240 0 94 -58 190 -147 242 -51 29 -157 40 -208 21z"/>
<path d="M2854 7202 c-109 -88 5 -252 123 -176 89 57 46 194 -61 194 -24 0
-50 -8 -62 -18z m110 -3 c38 -18 60 -72 46 -114 -14 -42 -48 -65 -99 -65 -32
0 -44 6 -65 31 -71 84 17 194 118 148z"/>
<path d="M3601 6854 c-177 -64 -274 -250 -216 -414 l15 -42 -79 -87 c-44 -47
-101 -107 -128 -132 -47 -45 -50 -47 -126 -53 -43 -3 -91 -13 -107 -21 -56
-29 -60 -49 -60 -326 l0 -252 -84 -86 c-46 -47 -89 -96 -95 -108 -6 -13 -11
-74 -11 -148 l0 -127 30 -30 c26 -25 36 -29 62 -24 18 3 42 16 55 28 21 20 23
30 23 125 l0 104 86 91 c97 102 114 134 114 213 l0 55 174 0 174 0 10 -29 c14
-41 78 -109 126 -134 55 -28 155 -30 210 -3 133 66 187 223 120 347 -56 104
-167 155 -280 130 -48 -11 -66 -22 -118 -72 l-60 -59 -178 0 -178 0 0 75 0 75
62 0 62 0 156 155 156 156 58 -27 c50 -23 67 -26 134 -22 92 5 157 33 218 93
62 63 88 125 92 223 4 77 2 88 -27 147 -36 72 -96 131 -169 165 -62 30 -162
36 -221 14z m225 -28 c113 -52 175 -145 182 -272 4 -73 1 -88 -22 -140 -33
-72 -84 -127 -151 -162 -43 -23 -63 -27 -135 -27 -72 0 -93 4 -138 26 l-53 26
-140 -146 c-78 -80 -151 -151 -163 -158 -11 -7 -47 -12 -78 -13 l-58 0 0 -85
0 -85 185 0 186 0 53 54 c84 86 187 107 284 57 84 -43 132 -122 132 -216 0
-94 -48 -173 -132 -216 -117 -60 -275 -4 -324 115 l-19 45 -182 3 -183 3 0
-55 c0 -91 -12 -115 -110 -216 l-90 -93 0 -101 c0 -113 -6 -132 -49 -149 -24
-10 -34 -10 -59 3 -16 8 -32 23 -36 31 -11 29 -7 255 5 278 6 12 49 60 95 107
l83 85 3 263 3 264 33 29 c30 27 38 29 110 29 l77 0 142 142 142 141 -16 30
c-21 42 -28 136 -14 194 36 144 181 251 325 238 33 -3 83 -16 112 -29z"/>
<path d="M3622 6683 c-68 -33 -104 -113 -83 -185 45 -149 252 -165 306 -23 32
82 -1 172 -76 210 -37 20 -106 19 -147 -2z m148 -10 c58 -40 87 -105 75 -169
-25 -138 -222 -158 -285 -30 -35 74 -10 152 64 197 39 24 113 25 146 2z"/>
<path d="M3613 5765 c-12 -8 -27 -31 -33 -50 -36 -109 123 -175 173 -72 22 44
17 78 -18 113 -28 28 -88 33 -122 9z m119 -25 c25 -26 29 -36 24 -63 -13 -68
-87 -98 -140 -56 -21 16 -26 29 -26 64 0 35 5 48 26 64 39 30 80 27 116 -9z"/>
<path d="M2119 6595 c-51 -28 -63 -120 -20 -159 22 -20 68 -33 98 -28 72 11
99 118 44 173 -33 33 -78 38 -122 14z m110 -21 c25 -21 31 -33 31 -65 0 -59
-41 -96 -100 -90 -78 8 -105 112 -43 161 35 27 75 25 112 -6z"/>
<path d="M5632 7329 c-180 -30 -327 -139 -406 -301 -56 -114 -70 -183 -70
-343 0 -216 43 -344 155 -460 109 -114 240 -165 426 -165 121 0 199 21 272 73
48 35 49 35 55 14 3 -12 6 -32 6 -44 0 -22 3 -23 108 -23 l107 0 -3 335 -3
335 -264 0 -265 0 0 -105 0 -105 135 0 135 0 0 -83 c0 -93 -3 -99 -75 -135
-130 -65 -306 -47 -410 41 -68 57 -114 192 -115 334 0 254 137 423 344 423
121 0 215 -57 245 -148 8 -23 17 -42 20 -42 3 1 58 20 121 43 131 48 130 46
82 145 -49 100 -161 178 -297 207 -76 16 -219 18 -303 4z"/>
<path d="M6530 6700 l0 -620 395 0 395 0 0 115 c0 87 -3 115 -12 114 -7 -1
-127 -1 -265 0 l-253 1 0 505 0 505 -130 0 -130 0 0 -620z"/>
<path d="M7480 6700 l0 -620 135 0 135 0 0 209 0 208 153 6 c159 5 219 18 309
63 145 73 204 205 187 415 -11 136 -78 232 -198 288 -95 43 -163 51 -458 51
l-263 0 0 -620z m571 377 c61 -33 89 -83 89 -165 0 -80 -21 -126 -73 -160 -38
-25 -49 -27 -179 -30 l-138 -4 0 191 0 191 128 0 c116 0 133 -2 173 -23z"/>
<path d="M8590 6700 l0 -620 130 0 130 0 0 620 0 620 -130 0 -130 0 0 -620z"/>
<path d="M5180 5258 l0 -413 85 0 85 0 0 178 0 177 150 0 150 0 0 -175 0 -175
90 0 90 0 -1 410 -1 410 -89 0 -89 0 0 -165 0 -165 -150 0 -150 0 0 165 0 165
-85 0 -85 0 0 -412z"/>
<path d="M5972 5373 c5 -339 8 -358 84 -442 65 -72 126 -96 244 -96 74 1 105
5 141 21 66 31 114 78 146 142 l28 57 3 308 3 307 -85 0 -86 0 0 -278 c0 -268
-1 -279 -22 -322 -32 -62 -67 -84 -132 -84 -43 0 -61 5 -89 27 -60 45 -67 88
-67 394 l0 263 -86 0 -86 0 4 -297z"/>
<path d="M6760 5258 l0 -413 80 3 80 4 1 286 c1 227 4 281 13 258 6 -17 50
-122 97 -235 l86 -206 69 0 69 0 95 235 95 235 3 -287 2 -288 80 0 80 0 2 410
3 410 -116 0 -116 0 -90 -232 c-50 -128 -94 -242 -97 -252 -4 -10 -8 -17 -10
-15 -2 2 -28 65 -59 139 -30 74 -76 186 -102 248 l-47 112 -109 0 -109 0 0
-412z"/>
<path d="M7848 5260 l-136 -410 87 0 86 0 29 95 29 95 148 0 148 0 29 -92 29
-93 86 -5 c48 -3 87 -2 87 2 0 3 -56 177 -124 385 -69 208 -128 390 -131 406
l-7 27 -112 0 -111 0 -137 -410z m342 -67 c0 -1 -45 -3 -101 -3 -79 0 -100 3
-96 13 4 10 63 198 94 297 3 11 103 -285 103 -307z"/>
<path d="M8560 5260 l0 -410 85 0 86 0 -3 265 c-2 146 -1 265 2 265 3 -1 72
-120 154 -265 l150 -265 88 0 88 0 0 410 0 410 -85 0 -85 0 3 -256 c2 -230 1
-253 -13 -233 -8 13 -76 127 -151 253 l-136 231 -92 3 -91 3 0 -411z"/>
<path d="M5545 4551 c-3 -5 -68 -191 -146 -413 -77 -222 -166 -476 -198 -566
l-58 -163 129 3 129 3 40 123 40 122 217 -2 216 -3 40 -122 39 -123 128 0 128
0 -40 113 c-22 61 -59 162 -80 222 -22 61 -94 261 -159 445 -65 184 -122 343
-125 353 -6 15 -23 17 -150 17 -79 0 -146 -4 -150 -9z m239 -511 c31 -90 56
-166 56 -167 0 -2 -67 -3 -148 -3 l-148 0 57 178 c32 97 65 204 75 236 l17 60
18 -70 c10 -38 43 -143 73 -234z"/>
<path d="M6400 4558 c0 -2 -1 -261 -3 -576 l-2 -572 123 0 122 0 0 575 0 575
-120 0 c-66 0 -120 -1 -120 -2z"/>
<path d="M6355 2726 c-11 -8 -18 -26 -18 -46 0 -56 62 -81 103 -40 55 55 -22
132 -85 86z"/>
<path d="M2360 2465 l0 -265 50 0 50 0 0 129 c0 151 10 175 74 175 63 0 69
-14 70 -168 l1 -136 48 0 49 0 -4 148 c-4 157 -12 189 -56 218 -33 22 -124 21
-158 0 l-24 -16 0 90 0 90 -50 0 -50 0 0 -265z"/>
<path d="M4395 2448 c-48 -156 -90 -289 -93 -296 -3 -10 7 -12 43 -10 l48 3
88 283 c49 155 91 287 94 292 4 6 -14 10 -42 10 l-49 0 -89 -282z"/>
<path d="M4735 2718 c-19 -51 -195 -570 -195 -574 0 -2 20 -4 45 -4 25 0 45 2
45 3 0 2 45 133 100 292 55 158 100 289 100 291 0 11 -91 3 -95 -8z"/>
<path d="M7452 2484 c3 -245 3 -246 27 -265 16 -13 39 -19 77 -19 l54 0 0 34
c0 30 -4 35 -27 38 -38 4 -43 32 -40 260 l2 198 -48 0 -48 0 3 -246z"/>
<path d="M2818 2623 c-3 -43 -6 -48 -29 -51 -20 -2 -28 -11 -37 -38 l-10 -34
39 0 39 0 0 -119 c0 -134 11 -160 76 -181 29 -10 124 -7 124 4 0 2 -5 17 -11
35 -9 26 -16 31 -43 31 -50 0 -56 13 -56 127 l0 103 45 0 c45 0 45 0 45 35 0
35 0 35 -45 35 l-45 0 0 50 0 50 -44 0 -45 0 -3 -47z"/>
<path d="M3110 2620 c0 -48 -1 -50 -29 -50 -21 0 -30 -6 -35 -22 -11 -42 -7
-48 29 -48 l35 0 0 -112 c0 -70 5 -123 13 -138 19 -39 73 -62 131 -56 27 3 50
7 52 9 3 2 -2 20 -10 39 -13 30 -19 35 -41 31 -47 -9 -55 9 -55 123 l0 104 45
0 c45 0 45 0 45 35 0 35 0 35 -45 35 l-45 0 0 50 0 50 -45 0 -45 0 0 -50z"/>
<path d="M6560 2619 c0 -49 -1 -51 -24 -47 -21 4 -26 0 -34 -34 l-10 -38 33 0
33 0 3 -120 4 -120 33 -32 c29 -30 38 -33 91 -33 33 0 63 3 66 7 4 4 2 22 -4
41 -10 29 -15 33 -39 29 -16 -2 -33 2 -39 10 -7 8 -13 57 -14 113 l-2 100 42
3 c40 3 41 4 41 40 0 37 0 37 -42 37 l-42 0 3 48 3 47 -51 0 -51 0 0 -51z"/>
<path d="M3370 2315 l0 -265 50 0 50 0 0 90 0 91 29 -22 c25 -18 39 -21 92
-17 54 4 66 8 90 36 36 40 52 101 47 177 -5 74 -32 131 -72 156 -43 27 -135
26 -169 -1 -14 -11 -28 -20 -31 -20 -3 0 -6 9 -6 20 0 17 -7 20 -40 20 l-40 0
0 -265z m237 161 c25 -22 28 -30 28 -89 0 -56 -4 -69 -24 -91 -33 -35 -83 -35
-116 -1 -22 21 -25 33 -25 90 0 57 3 69 25 90 31 32 75 32 112 1z"/>
<path d="M3842 2560 c-45 -28 -68 -82 -53 -130 13 -43 45 -64 126 -80 67 -14
85 -24 85 -51 0 -43 -74 -51 -119 -13 -28 23 -34 24 -71 14 -40 -11 -40 -11
-26 -38 30 -58 50 -67 148 -67 l90 0 34 37 c27 30 34 46 34 79 0 62 -44 102
-132 119 -80 14 -99 31 -73 60 25 28 70 25 100 -4 23 -23 28 -24 66 -13 l40
12 -23 35 c-31 46 -61 60 -133 60 -43 0 -70 -6 -93 -20z"/>
<path d="M4176 2564 c-22 -21 -20 -67 2 -87 40 -36 102 -9 102 45 0 49 -69 78
-104 42z"/>
<path d="M4870 2390 l0 -190 48 0 47 0 -3 123 c-3 113 -1 125 18 150 24 30 64
36 96 13 17 -13 19 -29 21 -153 1 -76 5 -137 8 -135 3 1 23 2 45 2 l40 0 0
128 c0 121 1 130 23 150 27 26 54 28 85 6 21 -14 22 -22 22 -150 l0 -134 50 0
50 0 0 128 c0 205 -25 252 -131 252 -47 0 -63 -5 -88 -25 l-30 -26 -25 26
c-33 33 -119 36 -159 5 -25 -20 -25 -20 -30 0 -4 16 -14 20 -46 20 l-41 0 0
-190z"/>
<path d="M5461 2573 c0 -4 35 -91 78 -193 71 -169 77 -187 65 -211 -20 -41
-40 -52 -80 -46 l-35 6 3 -42 c3 -41 4 -42 43 -45 45 -4 91 16 117 52 15 21
188 459 188 477 0 5 -20 9 -43 9 l-44 0 -42 -112 c-22 -62 -41 -119 -41 -125
0 -37 -20 0 -60 110 l-45 122 -53 3 c-28 2 -52 -1 -51 -5z"/>
<path d="M6350 2388 l0 -193 45 0 45 0 0 193 0 192 -45 0 -45 0 0 -192z"/>
<path d="M7020 2315 l0 -265 45 0 45 0 0 91 0 90 26 -20 c41 -32 132 -30 174
5 48 41 60 73 60 166 0 97 -17 141 -69 175 -50 34 -129 32 -170 -3 l-31 -26 0
26 c0 24 -4 26 -40 26 l-40 0 0 -265z m235 160 c22 -21 25 -33 25 -90 0 -57
-3 -69 -25 -90 -48 -49 -123 -23 -140 48 -11 41 4 116 26 138 28 28 84 25 114
-6z"/>
<path d="M5890 2420 l0 -40 185 0 185 0 0 40 0 40 -185 0 -185 0 0 -40z"/>
<path d="M4167 2292 c-35 -38 -5 -102 48 -102 29 0 65 32 65 58 0 10 -7 28
-16 40 -19 28 -74 30 -97 4z"/>
<path d="M6827 2292 c-21 -23 -22 -66 -1 -86 24 -24 80 -20 98 6 21 30 20 54
-4 78 -25 25 -72 26 -93 2z"/>
</g>
</svg>
